<?xml version="1.0" encoding="UTF-8"?> <svg xmlns="http://www.w3.org/2000/svg" id="Layer_1" version="1.1" viewBox="0 0 1034.1 613.4"><defs><style> .st0 { fill: #0073ff; } </style></defs><g><path class="st0" d="M517.7,293.6c81.1,0,146.8-65.7,146.8-146.8S598.8,0,517.7,0s-146.8,65.7-146.8,146.8,65.7,146.8,146.8,146.8Z"></path><path class="st0" d="M783.3,486.9c-37.4-115-144.3-192.9-265.1-193.3h0c-.2,0-.3,0-.5,0s-.3,0-.5,0h0c-120.8.4-227.8,78.3-265.1,193.3l-41.1,126.5h203.3s103.4-318.3,103.4-318.3l103.4,318.3h203.3s-41.1-126.5-41.1-126.5Z"></path></g><path class="st0" d="M853.2,611.8l-2.4-7.4-41.1-126.5c-23.4-72.1-71.4-130.9-133-168.4-4.4-11.9-6.9-24.7-6.9-38.1,0-60.5,49.1-109.6,109.6-109.6.4,0,.9,0,1.3,0,26.6,0,51,9.8,69.7,26.1,23.6,20.1,38.6,50,38.6,83.5,0,19.3-5,37.5-13.8,53.3-.1.2-.2.4-.3.6-9.8,17.3-24.2,31.7-41.5,41.5,78.3,13.6,144,69.5,168.9,146.7l31.7,98.5h-180.8s0-.1,0-.1Z"></path><path class="st0" d="M180.8,611.8l2.4-7.4,41.1-126.5c23.4-72.1,71.4-130.9,133-168.4,4.4-11.9,6.9-24.7,6.9-38.1,0-60.5-49.1-109.6-109.6-109.6-.4,0-.9,0-1.3,0-26.6,0-51,9.8-69.7,26.1-23.6,20.1-38.6,50-38.6,83.5,0,19.3,5,37.5,13.8,53.3.1.2.2.4.3.6,9.8,17.3,24.2,31.7,41.5,41.5-78.3,13.6-144,69.5-168.9,146.7L0,611.9h180.8s0-.1,0-.1Z"></path></svg> 