<?xml version="1.0" encoding="UTF-8"?> <svg xmlns="http://www.w3.org/2000/svg" width="137" height="47" viewBox="0 0 137 47" fill="none"><path d="M0 19C0 8.50659 8.50659 0 19 0H137V38H19C8.50659 38 0 29.4934 0 19Z" fill="#00A67E"></path><g clip-path="url(#clip0_303_7679)"><path d="M32.6011 18.581H31.2343V14.562C31.2343 13.5575 30.4209 12.743 29.4179 12.743H25.4324V11.4022C25.4324 10.0754 24.3584 9 23.0335 9C21.7085 9 20.6346 10.0754 20.6346 11.4022V12.743H16.8165C15.8134 12.743 15 13.5575 15 14.562V18.581H16.59C17.9149 18.581 18.9888 19.6564 18.9888 20.9832C18.9888 22.3101 17.9149 23.3855 16.59 23.3855H15V27.181C15 28.1855 15.8134 29 16.8165 29H20.6346V27.4358C20.6346 26.1089 21.7085 25.0335 23.0335 25.0335C24.3584 25.0335 25.4324 26.1089 25.4324 27.4358V29H29.4179C30.4209 29 31.2343 28.1855 31.2343 27.181V23.3855H32.6011C33.9261 23.3855 35 22.3101 35 20.9832C35 19.6564 33.9261 18.581 32.6011 18.581Z" fill="#DAFFC6"></path></g><path d="M54.288 25H44.46L44.514 24.802C45.846 24.64 46.08 24.532 46.296 23.542L48.384 13.822C48.6 12.76 48.312 12.706 47.124 12.562L47.16 12.364H56.772L56.196 15.478H56.016C55.638 13.21 55.08 12.688 53.568 12.688H50.742L49.536 18.304H52.182C53.244 18.304 53.694 17.692 54.144 16.468H54.342L53.496 20.482H53.28C53.352 19.258 53.28 18.628 52.11 18.628H49.464L48.42 23.47C48.222 24.442 48.69 24.676 49.86 24.676H51.3C52.794 24.676 54.09 23.722 55.494 21.31H55.674L54.288 25ZM59.0044 22.714L60.1384 20.896L59.1664 17.026L57.7084 16.144V16.072L60.6964 15.388H60.7504L61.6144 18.988L62.8024 17.098C63.4684 16.018 64.0804 15.37 64.8904 15.37C65.6284 15.37 66.0604 15.856 66.0604 16.504C66.0604 17.224 65.4304 17.638 64.8904 17.854H64.8544C64.8724 17.206 64.6564 16.756 64.0804 16.756C63.6304 16.756 63.1984 17.062 62.6584 17.854L61.6864 19.276L62.4784 22.588C62.6944 23.434 62.8204 23.83 63.2524 23.83C63.6844 23.83 64.2244 23.434 64.8724 22.57L64.9804 22.66C64.2064 24.118 63.3064 25.18 62.1904 25.18C61.3444 25.18 61.0204 24.424 60.7144 23.182L60.2284 21.238L58.9144 23.452C58.2844 24.514 57.6724 25.18 56.6824 25.18C55.9984 25.18 55.5304 24.694 55.5304 24.01C55.5304 23.218 56.1964 22.822 56.6464 22.624H56.6824C56.6464 23.434 57.0244 23.794 57.5464 23.794C57.9604 23.794 58.4644 23.56 59.0044 22.714ZM71.261 22.39C70.289 24.172 69.065 25.18 67.895 25.18C67.031 25.18 66.545 24.64 66.545 23.812C66.545 23.434 66.599 23.038 66.725 22.516L68.273 16.324H67.049L67.103 16.198C68.435 15.64 69.965 14.542 70.847 13.426H70.937L70.361 15.748H72.503L72.251 16.324H70.217L68.687 22.534C68.579 22.912 68.543 23.2 68.543 23.434C68.543 23.74 68.705 23.92 68.993 23.92C69.641 23.92 70.343 23.398 71.153 22.3L71.261 22.39ZM78.9334 22.372C78.1054 24.028 76.7194 25.18 75.1354 25.18C73.2814 25.18 72.1654 23.848 72.1654 21.85C72.1654 18.826 74.7214 15.388 77.5834 15.388C79.0774 15.388 79.7794 16.198 79.7794 17.188C79.7794 19.312 76.8994 20.158 74.1814 20.59C74.1454 20.878 74.1274 21.148 74.1274 21.418C74.1274 23.092 74.8474 24.028 76.0354 24.028C77.0794 24.028 78.0334 23.434 78.8074 22.3L78.9334 22.372ZM78.1414 16.774C78.1414 16.162 77.9254 15.658 77.2954 15.658C75.8914 15.658 74.5234 18.106 74.1994 20.41C76.8094 19.798 78.1414 18.628 78.1414 16.774ZM84.3951 15.388L83.0271 20.68C84.0171 18.286 86.1411 15.388 88.0131 15.388C88.9131 15.388 89.2551 15.892 89.2551 16.72C89.2551 16.954 89.2011 17.278 89.1291 17.548L87.7071 22.876C87.6171 23.218 87.5631 23.506 87.5631 23.65C87.5631 23.866 87.6351 23.956 87.8331 23.956C88.2111 23.956 88.9131 23.344 89.5791 22.39L89.6871 22.462C88.8411 24.046 87.6711 25.18 86.5371 25.18C85.8711 25.18 85.5111 24.766 85.5111 24.118C85.5111 23.83 85.5651 23.488 85.6911 23.02L87.1671 17.602C87.2211 17.368 87.2571 17.152 87.2571 17.008C87.2571 16.756 87.1671 16.63 86.9511 16.63C85.9071 16.63 83.4231 19.186 82.6851 22.192L81.9831 25H80.0211L82.0191 17.026L80.8311 16.252V16.18L84.3231 15.388H84.3951ZM90.9866 21.922C91.1846 23.38 92.1566 24.676 93.3266 24.676C94.1366 24.676 94.8026 24.082 94.8026 23.236C94.8026 21.526 91.4186 20.428 91.4186 18.34C91.4186 17.026 92.8406 15.388 94.7846 15.388C96.0986 15.388 96.9626 16 96.9626 16.936C96.9626 17.494 96.4226 17.908 95.9366 18.052H95.9006C95.7386 16.864 94.9466 15.838 93.9026 15.838C93.1286 15.838 92.6786 16.396 92.6786 17.044C92.6786 18.574 96.1346 19.942 96.1346 21.922C96.1346 23.56 94.2986 25.18 92.4626 25.18C90.9866 25.18 89.9246 24.262 89.9246 23.236C89.9246 22.66 90.3746 22.12 90.9506 21.922H90.9866ZM102.394 12.778C102.394 13.48 101.836 14.074 101.098 14.074C100.396 14.074 99.91 13.552 99.91 12.922C99.91 12.202 100.468 11.626 101.206 11.626C101.908 11.626 102.394 12.148 102.394 12.778ZM97.642 23.02L99.154 17.026L97.984 16.252V16.18L101.476 15.388H101.548L99.658 22.876C99.568 23.218 99.514 23.506 99.514 23.65C99.514 23.866 99.586 23.956 99.766 23.956C100.144 23.956 100.864 23.344 101.512 22.39L101.62 22.462C100.792 24.046 99.622 25.18 98.488 25.18C97.804 25.18 97.462 24.766 97.462 24.118C97.462 23.83 97.516 23.488 97.642 23.02ZM102.54 21.742C102.54 18.808 104.898 15.388 107.76 15.388C109.614 15.388 110.82 16.738 110.82 18.808C110.82 21.76 108.48 25.18 105.618 25.18C103.764 25.18 102.54 23.83 102.54 21.742ZM104.484 22.3C104.484 23.668 104.7 24.928 105.618 24.928C107.31 24.928 108.894 21.112 108.894 18.25C108.894 16.9 108.678 15.64 107.742 15.64C106.05 15.64 104.484 19.456 104.484 22.3ZM115.842 15.388L114.474 20.68C115.464 18.286 117.588 15.388 119.46 15.388C120.36 15.388 120.702 15.892 120.702 16.72C120.702 16.954 120.648 17.278 120.576 17.548L119.154 22.876C119.064 23.218 119.01 23.506 119.01 23.65C119.01 23.866 119.082 23.956 119.28 23.956C119.658 23.956 120.36 23.344 121.026 22.39L121.134 22.462C120.288 24.046 119.118 25.18 117.984 25.18C117.318 25.18 116.958 24.766 116.958 24.118C116.958 23.83 117.012 23.488 117.138 23.02L118.614 17.602C118.668 17.368 118.704 17.152 118.704 17.008C118.704 16.756 118.614 16.63 118.398 16.63C117.354 16.63 114.87 19.186 114.132 22.192L113.43 25H111.468L113.466 17.026L112.278 16.252V16.18L115.77 15.388H115.842Z" fill="#DAFFC6"></path><path d="M128 38V46.5L137 38H128Z" fill="#007D5F"></path><defs><clipPath id="clip0_303_7679"><rect width="20" height="20" fill="white" transform="translate(15 9)"></rect></clipPath></defs></svg> 