<?xml version="1.0" encoding="UTF-8"?> <svg xmlns="http://www.w3.org/2000/svg" id="Layer_2" data-name="Layer 2" viewBox="0 0 255 255"><defs><style> .cls-1 { fill: #0073ff; } </style></defs><g id="Layer_1-2" data-name="Layer 1"><g><path class="cls-1" d="m127.5,122.05c33.7,0,61.02-27.32,61.02-61.02S161.2,0,127.5,0s-61.02,27.32-61.02,61.02,27.32,61.02,61.02,61.02Z"></path><path class="cls-1" d="m237.91,202.4c-15.53-47.79-59.99-80.17-110.22-80.34v-.02c-.06,0-.13,0-.2,0s-.13,0-.2,0v.02c-50.22.16-94.69,32.54-110.21,80.34L0,254.99h84.5s43-132.33,43-132.33l43,132.33h84.5s-17.09-52.6-17.09-52.6Z"></path></g></g></svg> 