<svg width="27" height="27" viewBox="0 0 27 27" fill="none" xmlns="http://www.w3.org/2000/svg">
<rect width="27" height="27" rx="3" fill="#00A67E"/>
<path d="M19.3208 12.7067H18.364V9.89341C18.364 9.19028 17.7946 8.62011 17.0925 8.62011H14.3026V7.68156C14.3026 6.75279 13.5509 6 12.6234 6C11.696 6 10.9442 6.75279 10.9442 7.68156V8.62011H8.27152C7.56937 8.62011 7 9.19028 7 9.89341V12.7067H8.11297C9.04045 12.7067 9.79219 13.4595 9.79219 14.3883C9.79219 15.317 9.04045 16.0698 8.11297 16.0698H7V18.7267C7 19.4298 7.56937 20 8.27152 20H10.9442V18.905C10.9442 17.9763 11.696 17.2235 12.6234 17.2235C13.5509 17.2235 14.3026 17.9763 14.3026 18.905V20H17.0925C17.7946 20 18.364 19.4298 18.364 18.7267V16.0698H19.3208C20.2483 16.0698 21 15.317 21 14.3883C21 13.4595 20.2483 12.7067 19.3208 12.7067Z" fill="#DAFFC6"/>
</svg>
