<?xml version="1.0" encoding="utf-8"?>
<!-- Generator: Adobe Illustrator 26.0.1, SVG Export Plug-In . SVG Version: 6.00 Build 0)  -->
<svg version="1.1" id="Calque_1" xmlns="http://www.w3.org/2000/svg" xmlns:xlink="http://www.w3.org/1999/xlink" x="0px" y="0px" viewBox="0 0 1000 1000" style="enable-background:new 0 0 1000 1000;" xml:space="preserve">
  <path id="Shape" fill-rule="evenodd" clip-rule="evenodd" d="M950,750c27.614,0,50,22.386,50,50s-22.386,50-50,50l0,0H50c-27.614,0-50-22.386-50-50
	s22.386-50,50-50H950z M950,450c27.614,0,50,22.386,50,50s-22.386,50-50,50l0,0H50c-27.614,0-50-22.386-50-50s22.386-50,50-50H950z
	 M950,150c27.614,0,50,22.386,50,50s-22.386,50-50,50l0,0H50c-27.614,0-50-22.386-50-50s22.386-50,50-50H950z" />
</svg>
