<?xml version="1.0" encoding="utf-8"?>
<!-- Generator: Adobe Illustrator 27.7.0, SVG Export Plug-In . SVG Version: 6.00 Build 0)  -->
<svg version="1.1" id="Layer_1" xmlns="http://www.w3.org/2000/svg" xmlns:xlink="http://www.w3.org/1999/xlink" x="0px" y="0px"
	 viewBox="0 0 747.3 522.8" style="enable-background:new 0 0 747.3 522.8;" xml:space="preserve">
<style type="text/css">
	.st0{fill:#0073FF;}
	.st1{fill:#02020A;}
</style>
<g>
	<g>
		<circle shape-rendering="geometricPrecision" class="st0" cx="470.8" cy="48.5" r="48.5"/>
		<circle shape-rendering="geometricPrecision" class="st0" cx="276.6" cy="242.7" r="48.5"/>
		<path shape-rendering="geometricPrecision" class="st0" d="M422.2,0h-97.1C271.5,0,228,43.5,228,97.1c0,53.6,43.5,97.1,97.1,97.1V97.1h97.1V0z"/>
		<path shape-rendering="geometricPrecision" class="st0" d="M422.2,97.1v97.1h-97.1v97.1l97.1,0v0c53.6,0,97.1-43.5,97.1-97.1C519.3,140.6,475.8,97.1,422.2,97.1z"/>
	</g>
	<g>
		<path shape-rendering="geometricPrecision" class="st1" d="M87.9,424.4c-3.6-2.9-7.7-5.4-12.2-7.3c-4.5-1.9-9.2-3.5-14.1-4.7l-12.1-3.1c-3.5-0.9-7-2.1-10.4-3.5
			c-3.4-1.4-6.2-3.2-8.4-5.5s-3.3-5.2-3.3-8.9c0-3.3,0.9-6.2,2.8-8.7c1.9-2.6,4.5-4.6,8.1-6c3.5-1.5,7.7-2.2,12.6-2.2
			c7,0,12.7,1.5,17,4.6c4.3,3.1,6.8,7.4,7.4,13h22.7c-0.2-7.3-2.2-13.8-6.2-19.5c-4-5.6-9.4-10.1-16.4-13.3
			c-7-3.2-15.1-4.8-24.3-4.8c-9.1,0-17.2,1.6-24.4,4.8c-7.2,3.2-12.8,7.7-16.9,13.4c-4.1,5.7-6.2,12.4-6.2,20.1
			c0,9.4,3.1,16.9,9.2,22.5c6.2,5.6,14.6,9.8,25.3,12.5l14.7,3.8c4.7,1.2,8.8,2.5,12.3,4c3.5,1.5,6.2,3.4,8.2,5.5c2,2.2,3,5,3,8.3
			c0,3.7-1.1,7-3.3,9.8c-2.2,2.8-5.3,5-9.1,6.5c-3.9,1.6-8.4,2.4-13.5,2.4c-4.9,0-9.3-0.8-13.3-2.3c-4-1.5-7.2-3.8-9.6-6.8
			c-2.4-3-3.8-6.8-4.2-11.3H0c0.3,8.6,2.6,15.9,6.8,21.9c4.2,6,10,10.6,17.4,13.7c7.4,3.1,16.2,4.7,26.3,4.7
			c10.3,0,19.2-1.6,26.5-4.9c7.3-3.3,12.9-7.8,16.8-13.6c3.9-5.8,5.8-12.5,5.8-20c0-5.6-1.1-10.6-3.2-14.7
			C94.4,430.9,91.5,427.3,87.9,424.4z"/>
		<polygon shape-rendering="geometricPrecision" class="st1" points="199.2,388.7 172.3,388.7 137.4,427.9 135.7,427.9 135.7,356.3 112.8,356.3 112.8,486.3 135.7,486.3 
			135.7,453.6 144.1,444.6 173.9,486.3 201.3,486.3 161.4,430.9 		"/>
		<path shape-rendering="geometricPrecision" class="st1" d="M276.6,399.3c-4.2-4-8.9-7-14.3-8.9c-5.4-1.9-11.1-2.9-17-2.9c-9.3,0-17.4,2.1-24.2,6.4
			c-6.9,4.2-12.2,10.2-15.9,17.8c-3.8,7.6-5.7,16.4-5.7,26.5c0,10.2,1.9,19,5.7,26.5c3.8,7.5,9.2,13.3,16.3,17.4
			c7.1,4.1,15.5,6.2,25.3,6.2c7.5,0,14.2-1.1,20.1-3.4s10.6-5.6,14.4-9.8c3.7-4.2,6.3-9.1,7.7-14.8l-21.4-2.5c-1,2.8-2.5,5.1-4.5,7
			c-1.9,1.9-4.3,3.3-7,4.2c-2.7,0.9-5.7,1.4-8.9,1.4c-5,0-9.4-1.1-13.1-3.3c-3.7-2.2-6.7-5.4-8.7-9.6c-1.9-3.8-2.8-8.3-3-13.5h67.7
			v-7.2c0-8.6-1.2-15.9-3.6-22.1C284,408.4,280.7,403.3,276.6,399.3z M222.3,428.4c0.3-3.7,1.1-7.1,2.6-10.2
			c1.8-3.9,4.4-7.1,7.9-9.4c3.5-2.3,7.7-3.5,12.6-3.5c4.9,0,9.1,1.2,12.4,3.5c3.3,2.3,5.8,5.5,7.5,9.6c1.2,2.9,2,6.2,2.3,9.9H222.3z
			"/>
		<path shape-rendering="geometricPrecision" class="st1" d="M375.3,399.3c-4.2-4-8.9-7-14.3-8.9c-5.4-1.9-11.1-2.9-17-2.9c-9.3,0-17.4,2.1-24.2,6.4
			c-6.9,4.2-12.2,10.2-15.9,17.8c-3.8,7.6-5.7,16.4-5.7,26.5c0,10.2,1.9,19,5.7,26.5c3.8,7.5,9.2,13.3,16.3,17.4
			c7.1,4.1,15.5,6.2,25.3,6.2c7.5,0,14.2-1.1,20.1-3.4s10.6-5.6,14.4-9.8c3.7-4.2,6.3-9.1,7.7-14.8l-21.4-2.5c-1,2.8-2.5,5.1-4.5,7
			c-1.9,1.9-4.3,3.3-7,4.2c-2.7,0.9-5.7,1.4-8.9,1.4c-5,0-9.4-1.1-13.1-3.3c-3.7-2.2-6.7-5.4-8.7-9.6c-1.9-3.8-2.8-8.3-3-13.5h67.7
			v-7.2c0-8.6-1.2-15.9-3.6-22.1C382.7,408.4,379.4,403.3,375.3,399.3z M321,428.4c0.3-3.7,1.1-7.1,2.6-10.2
			c1.8-3.9,4.4-7.1,7.9-9.4c3.5-2.3,7.7-3.5,12.6-3.5c4.9,0,9.1,1.2,12.4,3.5c3.3,2.3,5.8,5.5,7.5,9.6c1.2,2.9,2,6.2,2.3,9.9H321z"
			/>
		<path shape-rendering="geometricPrecision" class="st1" d="M473.1,393.3c-6-3.8-12.8-5.8-20.3-5.8c-5.8,0-10.5,1-14.2,2.9c-3.7,1.9-6.6,4.2-8.8,6.9
			c-2.1,2.7-3.8,5.2-5,7.5h-1.4v-16.1H401v134h22.9v-51.9h1c1.2,2.4,2.9,4.9,5.1,7.5c2.2,2.6,5.2,4.9,8.9,6.8
			c3.7,1.9,8.3,2.8,13.8,2.8c7.7,0,14.5-2,20.6-5.9c6.1-3.9,10.8-9.6,14.3-17.1c3.5-7.5,5.2-16.6,5.2-27.3c0-10.9-1.8-20-5.4-27.5
			C483.9,402.8,479.1,397.1,473.1,393.3z M466.8,453.8c-1.7,4.8-4.3,8.5-7.7,11.3c-3.4,2.7-7.6,4.1-12.7,4.1c-4.9,0-9-1.3-12.5-4
			c-3.4-2.6-6-6.3-7.8-11.1c-1.8-4.7-2.7-10.3-2.7-16.5c0-6.3,0.9-11.9,2.7-16.5c1.8-4.7,4.4-8.3,7.8-10.9c3.4-2.6,7.6-3.8,12.5-3.8
			c5.1,0,9.4,1.3,12.7,4c3.4,2.7,5.9,6.4,7.7,11.1c1.7,4.7,2.6,10.1,2.6,16.1S468.5,449.1,466.8,453.8z"/>
		<path shape-rendering="geometricPrecision" class="st1" d="M578.5,399.3c-4.2-4-8.9-7-14.3-8.9c-5.4-1.9-11.1-2.9-17-2.9c-9.3,0-17.4,2.1-24.2,6.4
			c-6.9,4.2-12.2,10.2-15.9,17.8c-3.8,7.6-5.7,16.4-5.7,26.5c0,10.2,1.9,19,5.7,26.5c3.8,7.5,9.2,13.3,16.3,17.4
			c7.1,4.1,15.5,6.2,25.3,6.2c7.5,0,14.2-1.1,20.1-3.4s10.6-5.6,14.4-9.8c3.7-4.2,6.3-9.1,7.7-14.8l-21.4-2.5c-1,2.8-2.5,5.1-4.5,7
			c-1.9,1.9-4.3,3.3-7,4.2c-2.7,0.9-5.7,1.4-8.9,1.4c-5,0-9.4-1.1-13.1-3.3c-3.7-2.2-6.7-5.4-8.7-9.6c-1.9-3.8-2.8-8.3-3-13.5h67.7
			v-7.2c0-8.6-1.2-15.9-3.6-22.1C586,408.4,582.7,403.3,578.5,399.3z M524.3,428.4c0.3-3.7,1.1-7.1,2.6-10.2
			c1.8-3.9,4.4-7.1,7.9-9.4c3.5-2.3,7.7-3.5,12.6-3.5c4.9,0,9.1,1.2,12.4,3.5c3.3,2.3,5.8,5.5,7.5,9.6c1.2,2.9,2,6.2,2.3,9.9H524.3z
			"/>
		<path shape-rendering="geometricPrecision" class="st1" d="M651.6,387.4c-5.6,0-10.5,1.5-14.9,4.6c-4.4,3.1-7.4,7.4-9.1,13.1h-1v-16.4h-22.2v97.6h22.9v-57.2
			c0-4.2,0.9-7.9,2.8-11c1.9-3.1,4.5-5.6,7.8-7.4c3.3-1.8,7.1-2.7,11.3-2.7c1.9,0,3.9,0.1,6,0.3c2.1,0.2,3.6,0.5,4.6,0.9V388
			c-1-0.2-2.4-0.3-4-0.4C654.2,387.5,652.8,387.4,651.6,387.4z"/>
		<path shape-rendering="geometricPrecision" class="st1" d="M740.5,440.1c-4.5-4.4-11.4-7.5-20.5-9.4l-16.6-3.5c-4.9-1.1-8.5-2.6-10.6-4.4c-2.1-1.8-3.2-4.2-3.2-7
			c0-3.3,1.6-5.9,4.8-8c3.2-2.1,7.2-3.1,12-3.1c5.3,0,9.4,1.2,12.3,3.7c2.9,2.5,4.8,5.3,5.7,8.5l20.8-2.2
			c-1.6-8.3-5.6-14.8-12.2-19.8c-6.5-4.9-15.5-7.4-27-7.4c-7.8,0-14.6,1.2-20.6,3.7s-10.5,5.9-13.9,10.3c-3.3,4.4-5,9.7-5,15.7
			c0,7.1,2.2,12.9,6.7,17.5c4.5,4.6,11.4,7.9,20.7,9.9l16.6,3.5c8.7,2,13.1,5.7,13.1,11.2c0,3.3-1.7,6-5,8.2
			c-3.3,2.2-7.7,3.4-13.2,3.4c-5.2,0-9.5-1.1-12.9-3.4c-3.3-2.2-5.5-5.5-6.5-9.9l-22.4,2.1c1.5,9,5.8,16,13,21
			c7.2,5,16.8,7.5,28.7,7.5c8.1,0,15.3-1.3,21.6-3.9c6.2-2.6,11.1-6.3,14.7-11c3.5-4.7,5.3-10.1,5.3-16.2
			C747.3,450.1,745.1,444.5,740.5,440.1z"/>
	</g>
</g>
</svg>
