<svg width="13" height="9" viewBox="0 0 13 9" fill="none" xmlns="http://www.w3.org/2000/svg">
<path d="M12.7765 3.98234L9.11825 0.559297C8.84 0.298138 8.40667 0.316792 8.15123 0.601269C7.89579 0.885745 7.91403 1.32878 8.19228 1.58994L10.5505 3.7958H0.68421C0.305614 3.7958 0 4.10826 0 4.49534C0 4.88241 0.305614 5.19487 0.68421 5.19487H10.5551L8.19684 7.40073C7.9186 7.66189 7.90035 8.10493 8.15579 8.3894C8.29263 8.53864 8.47509 8.61792 8.6621 8.61792C8.82631 8.61792 8.99053 8.55729 9.12281 8.43604L12.7811 5.01299C12.9225 4.88241 13.0046 4.6912 13.0046 4.49534C13.0046 4.29947 12.9225 4.11292 12.7811 3.97768L12.7765 3.98234Z" fill="#0073FF"/>
</svg>
