<?xml version="1.0" encoding="UTF-8"?> <svg xmlns="http://www.w3.org/2000/svg" width="52" height="11" viewBox="0 0 52 11" fill="none"><g clip-path="url(#clip0_539_480)"><path d="M18.3744 5.6555C18.1899 5.50205 17.9797 5.37491 17.7523 5.27407C17.5207 5.17324 17.2804 5.08994 17.0316 5.03294L16.4138 4.87511C16.2336 4.82688 16.0578 4.76551 15.8819 4.69536C15.7103 4.62083 15.5644 4.52437 15.4571 4.406C15.3456 4.28763 15.2898 4.13418 15.2898 3.94566C15.2898 3.77467 15.337 3.62561 15.4314 3.4897C15.5258 3.35817 15.6631 3.25295 15.8432 3.17403C16.0234 3.0995 16.2379 3.06005 16.4868 3.06005C16.8471 3.06005 17.1346 3.13896 17.3534 3.29679C17.5721 3.45462 17.7009 3.6826 17.7309 3.97196H18.8892C18.8806 3.59054 18.7734 3.25295 18.5717 2.95921C18.3701 2.66547 18.0912 2.4331 17.7352 2.2665C17.3791 2.0999 16.9672 2.0166 16.4953 2.0166C16.032 2.0166 15.6202 2.0999 15.2555 2.2665C14.8909 2.4331 14.6034 2.66547 14.3932 2.96359C14.183 3.26172 14.0757 3.61246 14.0757 4.01142C14.0757 4.49807 14.2345 4.88826 14.5476 5.18201C14.8608 5.47575 15.2898 5.69058 15.8347 5.83525L16.5854 6.03693C16.8257 6.09831 17.0359 6.16845 17.2118 6.24737C17.3877 6.32629 17.5292 6.42274 17.6279 6.53673C17.7266 6.65072 17.7781 6.7954 17.7781 6.97077C17.7781 7.16367 17.7223 7.33466 17.6108 7.47934C17.4992 7.62401 17.3448 7.738 17.1431 7.8213C16.9458 7.9046 16.7141 7.94406 16.4567 7.94406C16.2079 7.94406 15.9805 7.9046 15.7789 7.82569C15.5773 7.74677 15.4142 7.6284 15.2898 7.47495C15.1654 7.31712 15.0925 7.12421 15.0753 6.88747H13.8956C13.9127 7.33466 14.0285 7.71608 14.243 8.03175C14.4576 8.34741 14.7536 8.58416 15.1311 8.74637C15.5086 8.90859 15.9591 8.99189 16.4739 8.99189C17.0016 8.99189 17.452 8.90859 17.8253 8.73761C18.1985 8.56662 18.4859 8.33426 18.6833 8.03175C18.8806 7.72924 18.9793 7.38288 18.9793 6.9883C18.9793 6.69456 18.9235 6.43589 18.8163 6.22107C18.709 5.99309 18.5589 5.80895 18.3744 5.6555Z" fill="#313235"></path><path d="M24.0502 3.7968H22.6816L20.9012 5.83984H20.8154V2.10449H19.6485V8.88249H20.8154V7.17703L21.2402 6.70792L22.7631 8.88249H24.1617L22.1282 5.99329L24.0502 3.7968Z" fill="#313235"></path><path d="M27.997 4.34475C27.7868 4.1343 27.5423 3.98086 27.2677 3.88002C26.9932 3.77918 26.7057 3.73096 26.4011 3.73096C25.9292 3.73096 25.5174 3.84056 25.1656 4.06416C24.8181 4.28775 24.5435 4.59465 24.3548 4.98923C24.1617 5.38381 24.0673 5.84415 24.0673 6.37026C24.0673 6.90075 24.166 7.36109 24.359 7.75128C24.5521 8.14148 24.831 8.44399 25.1913 8.65882C25.5517 8.87364 25.9807 8.97886 26.4783 8.97886C26.8645 8.97886 27.2034 8.91749 27.5037 8.79911C27.7997 8.68074 28.0442 8.50975 28.2373 8.29054C28.4303 8.07133 28.559 7.81266 28.632 7.51892L27.538 7.38739C27.4865 7.53207 27.4093 7.65483 27.3106 7.75567C27.2119 7.85212 27.0918 7.92665 26.9545 7.97488C26.8173 8.02311 26.6671 8.04941 26.4998 8.04941C26.2467 8.04941 26.0236 7.99242 25.8305 7.87843C25.6375 7.76444 25.4916 7.59784 25.3844 7.37424C25.29 7.17695 25.2385 6.9402 25.2299 6.67277H28.6834V6.30011C28.6834 5.85292 28.6234 5.47149 28.5033 5.14706C28.3746 4.82263 28.2072 4.55519 27.997 4.34475ZM25.7662 4.84893C25.9421 4.72617 26.1566 4.66918 26.4097 4.66918C26.6628 4.66918 26.873 4.73056 27.0403 4.84893C27.2077 4.97169 27.3364 5.13829 27.4222 5.35312C27.4822 5.50656 27.5208 5.67755 27.5423 5.87045H25.2299C25.2471 5.67755 25.29 5.50218 25.3629 5.33996C25.453 5.12952 25.586 4.96731 25.7662 4.84893Z" fill="#313235"></path><path d="M33.0293 4.34475C32.8191 4.1343 32.5745 3.98086 32.3 3.88002C32.0254 3.77918 31.738 3.73096 31.4334 3.73096C30.9615 3.73096 30.5496 3.84056 30.1978 4.06416C29.8503 4.28775 29.5758 4.59465 29.387 4.98923C29.194 5.38381 29.0996 5.84415 29.0996 6.37026C29.0996 6.90075 29.1983 7.36109 29.3913 7.75128C29.5844 8.14148 29.8632 8.44399 30.2236 8.65882C30.5839 8.87364 31.013 8.97886 31.5106 8.97886C31.8967 8.97886 32.2356 8.91749 32.5359 8.79911C32.8319 8.68074 33.0765 8.50975 33.2695 8.29054C33.4626 8.07133 33.5913 7.81266 33.6642 7.51892L32.5703 7.38739C32.5188 7.53207 32.4415 7.65483 32.3429 7.75567C32.2442 7.85212 32.1241 7.92665 31.9868 7.97488C31.8495 8.02311 31.6994 8.04941 31.5321 8.04941C31.2789 8.04941 31.0559 7.99242 30.8628 7.87843C30.6697 7.76444 30.5239 7.59784 30.4166 7.37424C30.3223 7.17695 30.2708 6.9402 30.2622 6.67277H33.7157V6.30011C33.7157 5.85292 33.6556 5.47149 33.5355 5.14706C33.4068 4.82263 33.2438 4.55519 33.0293 4.34475ZM30.7985 4.84893C30.9743 4.72617 31.1888 4.66918 31.442 4.66918C31.6951 4.66918 31.9053 4.73056 32.0726 4.84893C32.2399 4.97169 32.3686 5.13829 32.4544 5.35312C32.5145 5.50656 32.5531 5.67755 32.5745 5.87045H30.2622C30.2794 5.67755 30.3223 5.50218 30.3952 5.33996C30.4853 5.12952 30.6226 4.96731 30.7985 4.84893Z" fill="#313235"></path><path d="M38.0187 4.03348C37.7098 3.8318 37.3666 3.73535 36.9847 3.73535C36.693 3.73535 36.4528 3.78358 36.264 3.88442C36.0752 3.98525 35.9251 4.10363 35.8178 4.24392C35.7063 4.38422 35.6248 4.51574 35.5647 4.6385H35.4918V3.79673H34.3463V10.7808H35.5132V8.07573H35.5604C35.6205 8.19848 35.7063 8.33001 35.8221 8.47031C35.938 8.60622 36.0881 8.72459 36.2769 8.82543C36.4656 8.92188 36.7016 8.97449 36.9805 8.97449C37.3708 8.97449 37.7226 8.87365 38.0315 8.6676C38.3404 8.46154 38.5849 8.16341 38.7608 7.77322C38.9367 7.38302 39.0268 6.90952 39.0268 6.34835C39.0268 5.78278 38.9367 5.3049 38.7523 4.91471C38.5721 4.52889 38.3232 4.23515 38.0187 4.03348ZM37.6969 7.19011C37.6068 7.44002 37.4781 7.63292 37.3022 7.7776C37.1306 7.92228 36.9118 7.99243 36.6544 7.99243C36.4056 7.99243 36.1954 7.92228 36.0195 7.78637C35.8436 7.65046 35.7106 7.45755 35.6205 7.20765C35.5304 6.96214 35.4832 6.67278 35.4832 6.34396C35.4832 6.01514 35.5304 5.72579 35.6205 5.48027C35.7106 5.23475 35.8436 5.04623 36.0152 4.91471C36.1868 4.78318 36.4013 4.71303 36.6544 4.71303C36.9161 4.71303 37.1306 4.78318 37.3022 4.92347C37.4738 5.06377 37.6025 5.25668 37.6926 5.50219C37.7827 5.74771 37.8256 6.0283 37.8256 6.34396C37.8299 6.65962 37.787 6.94021 37.6969 7.19011Z" fill="#313235"></path><path d="M43.3941 4.34475C43.1839 4.1343 42.9394 3.98086 42.6648 3.88002C42.3902 3.77918 42.1028 3.73096 41.7982 3.73096C41.3263 3.73096 40.9144 3.84056 40.5627 4.06416C40.2152 4.28775 39.9406 4.59465 39.7518 4.98923C39.5588 5.38381 39.4644 5.84415 39.4644 6.37026C39.4644 6.90075 39.5631 7.36109 39.7561 7.75128C39.9492 8.14148 40.228 8.44399 40.5884 8.65882C40.9488 8.87364 41.3778 8.97886 41.8754 8.97886C42.2615 8.97886 42.6004 8.91749 42.9008 8.79911C43.1968 8.68074 43.4413 8.50975 43.6344 8.29054C43.8274 8.07133 43.9561 7.81266 44.029 7.51892L42.9351 7.38739C42.8836 7.53207 42.8064 7.65483 42.7077 7.75567C42.609 7.85212 42.4889 7.92665 42.3516 7.97488C42.2143 8.02311 42.0642 8.04941 41.8969 8.04941C41.6438 8.04941 41.4207 7.99242 41.2276 7.87843C41.0346 7.76444 40.8887 7.59784 40.7815 7.37424C40.6871 7.17695 40.6356 6.9402 40.627 6.67277H44.0805V6.30011C44.0805 5.85292 44.0205 5.47149 43.9003 5.14706C43.7716 4.82263 43.6043 4.55519 43.3941 4.34475ZM41.1633 4.84893C41.3392 4.72617 41.5537 4.66918 41.8068 4.66918C42.0599 4.66918 42.2701 4.73056 42.4374 4.84893C42.6047 4.97169 42.7334 5.13829 42.8192 5.35312C42.8793 5.50656 42.9179 5.67755 42.9394 5.87045H40.627C40.6442 5.67755 40.6871 5.50218 40.76 5.33996C40.8501 5.12952 40.9831 4.96731 41.1633 4.84893Z" fill="#313235"></path><path d="M47.1179 3.72656C46.8348 3.72656 46.5816 3.80548 46.3585 3.96331C46.1355 4.12114 45.981 4.34912 45.8909 4.64725H45.8395V3.79671H44.7069V8.8824H45.8738V5.90113C45.8738 5.68192 45.921 5.4934 46.0196 5.3268C46.114 5.16459 46.247 5.03306 46.4186 4.94099C46.5859 4.84892 46.779 4.8007 46.9978 4.8007C47.0964 4.8007 47.1994 4.80508 47.3024 4.81823C47.4096 4.83139 47.4868 4.84454 47.5383 4.86207V3.76164C47.4868 3.75287 47.4182 3.7441 47.3367 3.73972C47.2552 3.73095 47.1822 3.72656 47.1179 3.72656Z" fill="#313235"></path><path d="M51.6568 6.47549C51.4251 6.24751 51.0776 6.08529 50.6143 5.98445L49.7649 5.8047C49.5118 5.74771 49.3316 5.66879 49.2243 5.57672C49.1171 5.48027 49.0613 5.35751 49.0613 5.20845C49.0613 5.03746 49.1428 4.89717 49.3058 4.79195C49.4689 4.68234 49.6748 4.62973 49.915 4.62973C50.1853 4.62973 50.3912 4.6955 50.5414 4.82264C50.6915 4.94978 50.7859 5.09884 50.8288 5.26544L51.8885 5.15145C51.8069 4.7218 51.601 4.37983 51.2707 4.12116C50.9361 3.86688 50.4813 3.73535 49.8979 3.73535C49.4989 3.73535 49.1514 3.80111 48.8511 3.92826C48.5508 4.0554 48.3148 4.23515 48.1432 4.46313C47.9759 4.6955 47.8901 4.96732 47.8901 5.28298C47.8901 5.65125 48.0059 5.95815 48.2333 6.1949C48.4607 6.43165 48.8125 6.60701 49.2887 6.71223L50.1381 6.89637C50.5843 6.99721 50.8031 7.1945 50.8031 7.47947C50.8031 7.65046 50.7173 7.79075 50.55 7.90913C50.3826 8.0275 50.1596 8.08449 49.8807 8.08449C49.6147 8.08449 49.3959 8.0275 49.2243 7.90913C49.0527 7.79075 48.9455 7.61977 48.894 7.39179L47.7528 7.50139C47.8258 7.96612 48.0488 8.33439 48.4178 8.59306C48.7867 8.85612 49.2758 8.98764 49.8807 8.98764C50.2968 8.98764 50.6615 8.9175 50.979 8.78159C51.2964 8.64567 51.5452 8.45277 51.7254 8.20725C51.9056 7.96174 51.9957 7.68115 51.9957 7.3611C52 6.99721 51.8842 6.70347 51.6568 6.47549Z" fill="#313235"></path><path d="M8.97054 3.66521C9.96093 3.66521 10.7638 2.84472 10.7638 1.8326C10.7638 0.820484 9.96093 0 8.97054 0C7.98016 0 7.17729 0.820484 7.17729 1.8326C7.17729 2.84472 7.98016 3.66521 8.97054 3.66521Z" fill="#0073FF"></path><path d="M1.79325 11.0002C2.78364 11.0002 3.5865 10.1797 3.5865 9.16756C3.5865 8.15545 2.78364 7.33496 1.79325 7.33496C0.802866 7.33496 0 8.15545 0 9.16756C0 10.1797 0.802866 11.0002 1.79325 11.0002Z" fill="#0073FF"></path><path d="M7.1773 0H3.5865C1.60449 0 0 1.6397 0 3.66521C0 5.69071 1.60449 7.33041 3.5865 7.33041V3.66521H7.17301V0H7.1773Z" fill="#0073FF"></path><path d="M7.1773 3.66504V7.33024H3.5865V10.9954H7.173C9.15502 10.9954 10.7595 9.35575 10.7595 7.33024C10.7638 5.30912 9.15502 3.66504 7.1773 3.66504Z" fill="#0073FF"></path></g><defs><clipPath id="clip0_539_480"><rect width="52" height="11" fill="white"></rect></clipPath></defs></svg> 