<?xml version="1.0" encoding="UTF-8"?> <svg xmlns="http://www.w3.org/2000/svg" xmlns:xlink="http://www.w3.org/1999/xlink" version="1.1" id="Layer_1" x="0px" y="0px" viewBox="0 0 287 284.7" style="enable-background:new 0 0 287 284.7;" xml:space="preserve"> <style type="text/css"> .st0{fill:#0573FD;} </style> <g> <path class="st0" d="M70.5,45.3C31.6,45.3,0,76.8,0,115.7l0,0h118.1L141,45.3H70.5z"></path> <path class="st0" d="M216.2,48.7c-12-37-51.8-57.3-88.8-45.3l0,0l36.5,112.3l74.1,0L216.2,48.7z"></path> <path class="st0" d="M257.9,188.4c31.5-22.9,38.5-67,15.6-98.4l0,0L178,159.3l22.9,70.5L257.9,188.4z"></path> <path class="st0" d="M138,271.2c31.5,22.9,75.6,15.9,98.4-15.6l0,0L141,186.2l-60,43.6L138,271.2z"></path> <path class="st0" d="M22.2,182.8c-12,37,8.2,76.8,45.3,88.8l0,0l36.5-112.3l-60-43.6L22.2,182.8z"></path> </g> </svg> 