<svg width="24" height="24" viewBox="0 0 24 24" fill="none" xmlns="http://www.w3.org/2000/svg">
  <path d="M16.6 5.82C16.6 5.82 16.6 5.82 16.6 5.82C16.6 5.82 16.6 5.82 16.6 5.82C16.6 5.82 16.6 5.82 16.6 5.82ZM16.6 5.82C15.94 5.4 15.42 4.8 15.12 4.09C14.83 3.38 14.78 2.6 14.98 1.87H12.32V11.15C12.32 11.15 12.32 11.16 12.32 11.16C12.32 11.7 12.16 12.22 11.86 12.67C11.56 13.11 11.14 13.45 10.65 13.66C10.16 13.86 9.62 13.91 9.1 13.8C8.58 13.69 8.1 13.43 7.73 13.05C7.36 12.68 7.1 12.2 6.99 11.68C6.88 11.16 6.93 10.62 7.14 10.13C7.34 9.64 7.69 9.22 8.13 8.92C8.58 8.62 9.1 8.46 9.64 8.46C9.78 8.46 9.92 8.47 10.06 8.49V5.87C9.85 5.84 9.64 5.83 9.43 5.83C8.37 5.83 7.33 6.12 6.43 6.67C5.53 7.22 4.8 8.01 4.33 8.95C3.86 9.89 3.66 10.94 3.77 11.99C3.87 13.04 4.27 14.03 4.92 14.85C5.57 15.67 6.45 16.28 7.44 16.6C8.44 16.93 9.51 16.95 10.51 16.67C11.52 16.39 12.42 15.82 13.1 15.03C13.78 14.24 14.21 13.27 14.34 12.23C14.35 12.16 14.35 12.09 14.36 12.02V8.32C15.27 8.95 16.33 9.32 17.43 9.38C17.76 9.4 18.09 9.41 18.42 9.39V6.76C18.42 6.76 18.42 6.76 18.42 6.76C17.77 6.81 17.15 6.44 16.6 5.82Z" fill="white"/>
</svg> 