<?xml version="1.0" encoding="UTF-8"?> <svg xmlns="http://www.w3.org/2000/svg" xmlns:xlink="http://www.w3.org/1999/xlink" version="1.1" id="Calque_1" x="0px" y="0px" viewBox="0 0 50 50" style="enable-background:new 0 0 50 50;" xml:space="preserve"> <style type="text/css"> .st0{fill:#FFFFFF;} </style> <g> <g id="_50x50-IN-linkedin"> <g id="linkedin" transform="translate(-81.26 -70.499)"> <path id="Tracé_1149" class="st0" d="M82,118.2h9.7V85.8H82V118.2z M119.8,84.7c-4.6-0.2-9.1,1.9-11.9,5.5v-4.5h-9.7v32.5h9.7 v-17.6c0.2-4.1,3.6-7.3,7.7-7.3c4.3,0,5.3,3.6,5.3,7.2v17.7h9.7V99.8C130.6,87,124.5,84.7,119.8,84.7L119.8,84.7z M86.8,82.6 c2.7,0,4.9-2.2,4.9-4.9s-2.2-4.9-4.9-4.9s-4.9,2.2-4.9,4.9l0,0C81.9,80.4,84.1,82.6,86.8,82.6z"></path> </g> </g> </g> </svg> 