<svg width="13" height="10" viewBox="0 0 13 10" fill="none" xmlns="http://www.w3.org/2000/svg">
<g clip-path="url(#clip0_450_660)">
<path d="M12.7765 4.48231L9.11825 1.05926C8.84 0.7981 8.40667 0.816754 8.15123 1.10123C7.89579 1.38571 7.91403 1.82874 8.19228 2.0899L10.5505 4.29576H0.68421C0.305614 4.29576 0 4.60822 0 4.9953C0 5.38237 0.305614 5.69483 0.68421 5.69483H10.5551L8.19684 7.90069C7.9186 8.16185 7.90035 8.60489 8.15579 8.88936C8.29263 9.0386 8.47509 9.11788 8.6621 9.11788C8.82631 9.11788 8.99053 9.05725 9.12281 8.936L12.7811 5.51295C12.9225 5.38237 13.0046 5.19117 13.0046 4.9953C13.0046 4.79943 12.9225 4.61289 12.7811 4.47764L12.7765 4.48231Z" fill="white"/>
</g>
<defs>
<clipPath id="clip0_450_660">
<rect width="13" height="8.24516" fill="white" transform="translate(0 0.877441)"/>
</clipPath>
</defs>
</svg>
