<?xml version="1.0" encoding="UTF-8"?> <svg xmlns="http://www.w3.org/2000/svg" xmlns:xlink="http://www.w3.org/1999/xlink" version="1.1" id="Layer_1" x="0px" y="0px" viewBox="0 0 488 459" style="enable-background:new 0 0 488 459;" xml:space="preserve"> <style type="text/css"> .st0{fill:#FFFFFF;} </style> <g transform="translate(0.000000,459.000000) scale(0.100000,-0.100000)"> <path class="st0" d="M14,4579c-2-3,160-224,359-490s622-832,940-1257l578-773l-37-42c-21-23-446-482-944-1020C412,458,3,14,2,9 C0,4,87,0,212,1l213,1l70,77c39,42,401,433,805,870s746,807,760,823l25,29l200-268c110-147,413-553,673-901L3432,0h725 c603,0,724,2,720,13c-3,8-187,256-409,553c-222,296-476,636-564,754c-89,118-350,469-582,778c-232,310-422,568-422,572 c0,7,1226,1338,1643,1783l119,127h-219l-218-1l-255-276c-140-152-483-524-763-825l-507-548l-615,822l-616,823l-725,5 C345,4583,16,4582,14,4579z M1732,3693c237-318,603-807,813-1088c210-280,676-904,1036-1385c360-482,658-881,663-888 c6-9-65-12-324-12h-331l-656,878C1419,3221,655,4243,646,4258c-6,9,62,12,323,12h331L1732,3693z"></path> </g> </svg> 